<?xml version="1.0" encoding="UTF-8" standalone="no"?>
<!-- Created with Inkscape (http://www.inkscape.org/) -->

<svg
   width="142.55779mm"
   height="112.76021mm"
   viewBox="0 0 142.55779 112.76021"
   version="1.1"
   id="svg5"
   inkscape:version="1.1.2 (0a00cf5339, 2022-02-04)"
   sodipodi:docname="logo.svg"
   xmlns:inkscape="http://www.inkscape.org/namespaces/inkscape"
   xmlns:sodipodi="http://sodipodi.sourceforge.net/DTD/sodipodi-0.dtd"
   xmlns="http://www.w3.org/2000/svg"
   xmlns:svg="http://www.w3.org/2000/svg">
  <sodipodi:namedview
     id="namedview7"
     pagecolor="#ffffff"
     bordercolor="#666666"
     borderopacity="1.0"
     inkscape:pageshadow="2"
     inkscape:pageopacity="0.0"
     inkscape:pagecheckerboard="0"
     inkscape:document-units="mm"
     showgrid="false"
     inkscape:zoom="0.48373316"
     inkscape:cx="394.84578"
     inkscape:cy="355.56793"
     inkscape:window-width="1366"
     inkscape:window-height="699"
     inkscape:window-x="1360"
     inkscape:window-y="0"
     inkscape:window-maximized="1"
     inkscape:current-layer="layer1" />
  <defs
     id="defs2" />
  <g
     inkscape:label="Layer 1"
     inkscape:groupmode="layer"
     id="layer1"
     transform="translate(204.29918,-199.88509)">
    <path
       style="fill:#000000;stroke-width:0.264583"
       d="m -172.69267,312.2308 c -3.29924,-0.47074 -13.68032,-1.64401 -12.53047,-3.16848 18.82197,1.86149 38.03145,-0.26686 55.78984,-6.83559 19.43965,-6.66459 37.870821,-17.89436 50.065766,-34.76294 6.33741,-9.37183 10.565004,-21.33338 6.699983,-32.55524 -4.287774,-13.62275 -17.586419,-22.0148 -30.602619,-25.96177 -6.02195,-1.717 -12.30598,-2.97603 -18.50968,-3.52595 5.91634,3.39153 11.69328,7.99512 13.96624,14.75561 4.54843,10.83595 -1.4411,22.13948 -7.42594,31.03752 -0.92433,2.39242 -7.68429,11.02295 -4.29991,4.20047 4.92271,-9.29087 9.10051,-20.27954 5.9654,-30.80949 -4.06753,-10.51682 -15.62654,-15.66709 -26.00906,-17.7122 -10.01676,-1.73214 -20.21169,-0.22768 -29.94633,2.31459 0.14017,-2.29503 9.27048,-3.63534 12.77379,-5.28762 15.27384,-4.2261 31.45621,-5.18714 47.12659,-2.89457 16.78254,2.639 34.050267,10.44174 42.986189,25.50738 6.594116,10.08044 6.050216,23.46912 1.817855,34.36108 -2.210836,4.8091 -5.247253,9.50119 -8.516608,13.9229 -14.615891,17.90645 -36.131376,29.06123 -58.340626,34.40738 -13.38026,3.49565 -27.27083,4.00714 -41.01041,3.00692 z m 23.09934,-7.43994 c -1.52394,-6.33661 -9.20309,-6.70777 -13.83893,-9.92249 -5.91684,-3.08538 -12.71725,-3.20482 -19.23843,-3.10677 -3.74459,-3.16904 -9.75178,-5.46545 -7.6836,-11.55803 -0.27629,-3.75829 0.91459,-12.39258 5.09391,-11.17874 2.54575,6.05939 10.83582,1.47984 15.29997,2.90994 5.13597,4.66045 -5.03748,14.79647 4.7353,14.8347 2.25867,-0.57509 4.4881,-3.36232 1.82656,0.29792 -5.93692,2.81515 -13.24474,-0.93104 -19.7761,0.62632 3.10937,1.78952 10.77077,1.55059 15.60721,2.49345 5.49063,1.63209 11.12788,-5.51261 14.77299,1.64473 2.93817,3.01335 6.57908,10.80267 3.20112,12.95897 z m -23.35129,-20.87334 c 1.41023,-2.01816 -4.79629,-2.76354 -0.69571,-5.53972 7.18335,-5.90239 -7.38551,-0.14129 -3.98278,4.40737 0.7527,1.63759 3.31031,2.53951 4.67849,1.13235 z m -12.20699,-1.43688 c 2.14002,-2.38765 -3.24085,-11.49557 -1.66231,-3.79089 0.76038,4.09871 -4.03199,-5.04816 -2.58441,1.02295 0.37161,1.72339 2.31055,5.08694 4.24672,2.76794 z m 42.79608,12.65682 c -1.92979,-6.37537 -9.6855,-8.86366 -10.5061,-15.52601 0.0579,-4.92054 -0.11475,-12.9117 -7.33841,-10.0326 -5.51835,2.13794 0.12683,-5.91799 -4.02069,-5.31499 -7.91891,1.80549 -7.56508,-5.65826 -5.20384,-10.70892 1.18345,-3.38117 2.02134,-15.52749 5.86098,-7.43416 3.28148,3.96804 2.50587,-7.78054 6.61994,-8.37336 3.46549,-2.25665 -3.39175,6.30626 2.17645,1.77687 7.2432,-1.71327 -0.26771,-10.30034 7.25909,-12.17858 8.36377,-3.64971 -12.6876,-7.4563 -3.06896,-6.45946 6.24723,0.98558 15.12862,4.77712 18.42041,-3.31148 1.18345,-2.25298 3.49331,-8.66107 3.8794,-2.67483 1.14929,7.83852 -5.87964,12.91575 -12.17007,15.64422 -4.63632,0.0492 -1.42155,8.81127 1.59893,5.20156 6.13105,-3.68212 14.09016,-3.81985 20.65984,-1.33674 5.88517,4.43433 -0.73705,12.17575 -5.15937,14.9534 -4.24118,3.71876 -10.87836,2.1542 -15.17956,3.00557 0.57087,9.69082 3.21046,19.53715 0.52744,29.1716 -1.4996,4.14002 -2.03176,10.70422 -4.35548,13.59791 z m -8.3923,-43.99805 c 4.32775,-0.76769 7.07846,-7.47284 2.41962,-9.56605 -8.01035,-3.91424 -13.24559,12.79124 -2.41941,9.56605 z m -5.1438,-2.98628 c -1.29413,-4.20798 8.77948,-7.18809 4.83842,-2.66035 2.71609,3.85117 -2.87996,2.82273 -4.83842,2.66035 z m -6.06453,35.78097 c 0.17024,-1.01969 0.26833,1.20428 0,0 z m -22.94364,-18.17362 c -0.29843,-4.13254 2.7857,-11.68025 0.17338,-13.93961 -4.56808,4.19409 -11.98781,6.44136 -17.73593,3.55334 -4.17183,-4.72043 -0.28308,-12.30019 4.07107,-15.62294 4.8524,-1.94777 12.03889,-1.32953 15.82363,-2.88571 -3.40696,3.71598 1.00059,6.92894 1.66293,10.30608 -0.13724,6.25481 0.55667,13.73097 -3.99508,18.58884 z m 2.11877,-32.36143 c -5.67147,-1.30724 -12.35769,-2.55436 -14.887,-8.70957 -3.85661,-6.60192 6.75849,1.57417 9.46853,0.77825 7.17534,0.27939 13.74245,-3.52633 20.61925,-5.1353 2.83356,-1.48442 9.12909,-1.44563 2.65451,-0.0348 -4.42024,-0.19271 -2.47666,2.19324 -3.00443,3.20936 -5.73039,1.13378 -13.21163,2.65754 -13.35152,10.00498 -0.13996,0.67049 -1.23706,0.99637 -1.49934,-0.11287 z"
       id="path21" />
  </g>
</svg>
